<svg version="1" xmlns="http://www.w3.org/2000/svg" width="682.667" height="682.667" viewBox="0 0 512.000000 512.000000"><path d="M226.9 5.5c-.2.2-2.9.6-5.9 1-3 .4-5.8.9-6.3 1.2-.4.2-1.9.7-3.4.9-1.5.3-3.1.8-3.7 1.2-.6.3-2 .8-3.1.9-1 .2-2.9 1-4.2 1.8-1.2.8-2.9 1.5-3.6 1.5-.8 0-2 .7-2.7 1.5-.7.8-1.6 1.3-2 1-.4-.3-1.1.2-1.4 1.1-.3.8-1 1.2-1.6.9-.5-.3-1-.1-1 .4 0 .6-.3 1-.7.9-.5-.2-2 .8-3.5 2.1-1.4 1.3-2.8 2.1-3.1 2-.2-.2-2.9 2.2-5.9 5.4-5.5 5.6-7.1 9.2-6.3 13.8.4 2.2-.8 3-12.5 8.8-7.2 3.5-13 6.8-13 7.3s-.4.7-.9.3c-.5-.3-1.5.1-2.3.8-.7.7-2.9 2.2-4.7 3.3-1.9 1-4.2 2.5-5 3.2-.9.7-1.9 1.2-2.3 1.2-.5 0-1.7.8-2.7 1.7-1.1 1-2.6 2.2-3.3 2.8-14 10.6-32 27.6-40.3 38-2.2 2.7-4.4 5.5-5 6.1-.5.6-1.7 2.2-2.5 3.4-.8 1.2-1.9 2.8-2.5 3.4-2.3 2.5-8.9 13.2-8.7 13.9.1.4-.5 1-1.3 1.3-.8.4-1.5 1-1.5 1.6 0 .5-1.2 3-2.7 5.6-1.5 2.5-2.8 5.3-3 6.1-.1.8-.8 1.8-1.5 2.2-.7.5-.8.9-.3.9.6 0 .6.3-.1.8-2.4 1.6-12.2 27.1-15.9 41.2-2.1 8.1-2 7.6-2.9 13.1-.8 4.4-1 4.7-6.9 7.4C20.4 220.3 8 231.7 8 234.6c0 .8-.4 1.4-1 1.4-.5 0-1 .9-1 2s-.4 2-.8 2c-.5 0-.9.6-1 1.2 0 .7-1 4.2-2 7.8-2 6.7-2.3 18.2-.7 26.5.9 4.9 6.9 17.7 9.8 21.2 5.4 6.4 13.9 12.4 19.2 13.7 3.3.8 6.5 3.3 6.5 5 0 1.8 6.2 21.1 7.1 22.1.5.5.9 1.6.9 2.4 0 2.3 15.2 32.5 17.1 34.1.4.3.9 1.5 1.3 2.7.4 1.3 1.2 2.3 1.7 2.3s.9.6.9 1.4c0 .8 1.1 2.4 2.5 3.7 1.3 1.3 2.5 3 2.5 3.6 0 .7.5 1.3 1 1.3.6 0 1 .5 1 1 0 1.4 10.1 14 11.2 14 .4 0 .8.5.8 1.1 0 1.7 19.3 20.5 28.5 27.8 4.4 3.5 8.3 6.9 8.7 7.5.4.6.8.7.8.3 0-.5 1.9.6 4.2 2.5 4.6 3.6 7 5.1 10.8 6.8 1.3.6 2.7 1.5 3 1.9.8 1.2 18.9 10.4 27.2 13.9 12.5 5.1 32.3 11.4 39.8 12.7 1.9.3 4.5.8 5.8 1 19.6 4.1 53 5 72.2 2.1 1.9-.3 5.1-.8 7-1.1 3.7-.5 10.4-1.8 15.5-3 4.3-1 4.8-1.1 6.5-1.8.8-.3 4.9-1.6 9-2.7 4.1-1.2 8.9-2.8 10.5-3.5 1.7-.7 5-2 7.5-3 6.2-2.3 21.4-9.8 22.1-10.8.3-.5 1-.9 1.5-.9.9 0 9.5-4.8 10.4-5.8.3-.3 2.1-1.4 4-2.4 1.9-1.1 4.7-2.9 6.1-4 1.5-1.2 3.9-3 5.4-4.1 1.6-1.1 3.4-2.6 4.1-3.2.7-.7 1.5-1.3 1.8-1.3 1.9 0 29.1-27.1 35.7-35.6 2.5-3.3 5.7-7.5 7-9.4 1.3-1.9 2.7-3.7 3-4 .7-.6 7.3-11 8.2-13 .4-.8 1.7-3.1 2.9-5 3.3-5.4 10.8-20.9 10.8-22.3 0-.7.4-1.7.9-2.2.4-.6 2-4.6 3.5-9s3.2-8.8 3.7-9.8.8-2.1.5-2.5c-.2-.4.6-2.7 1.7-5.1 1.8-3.6 3-4.7 6.2-5.8 6.6-2.1 7.5-2.5 7.5-3.4 0-.5.6-.9 1.4-.9 1.7 0 13.6-12.6 13.6-14.4 0-.8.6-1.6 1.4-1.9.7-.3 1.7-2 2.1-3.9.4-1.8.8-3.5.9-3.8.1-.3.4-1 .7-1.5 2.6-4.3 3.3-21.9 1.3-30.5-3.1-13.5-13.5-27.1-24.6-32.3-6.5-3.1-6.4-3-7.2-7.8-.3-2-.9-4.7-1.4-6-.5-1.3-.7-2.9-.5-3.6.2-.6-.1-1.4-.6-1.8-.6-.3-1.1-1.4-1.1-2.4 0-2.4-5.7-19.9-7.5-23.3-.8-1.4-1.5-3.1-1.5-3.7 0-.6-2.1-5.3-4.6-10.3-2.6-5.1-5.5-11-6.5-13-1.1-2-2.3-4-2.9-4.3-.6-.4-.8-1.1-.5-1.6.4-.5.1-.9-.4-.9-.6 0-1.1-.4-1.1-1 0-.5-1.6-3.2-3.5-5.9-1.9-2.6-3.5-5.1-3.5-5.5 0-.8-1.3-2.4-4.8-6.1-1.3-1.4-1.9-2.5-1.5-2.5.4 0 .3-.4-.2-.8-.6-.4-3-3.2-5.5-6.2-4.4-5.4-12.3-14.1-14.8-16.4-.7-.6-3.1-2.9-5.5-5.1-9.6-9.2-29.5-23.9-42.7-31.4-8.4-4.9-25.8-13-27.1-12.7-.3 0-1.2-.4-2-1s-5.9-2.6-11.4-4.3c-5.5-1.7-11.4-3.6-13.1-4.1-1.7-.6-4-1-5.2-1-1.2 0-2.2-.4-2.2-.9s-.9-.7-1.9-.4c-1.4.3-3.6-1-7.3-4.4-2.9-2.6-5.4-5.1-5.6-5.6-.2-.4-.9-.7-1.6-.7-.7 0-2.1-.9-3.1-2s-2.2-2-2.7-2-2.5-1.1-4.5-2.5c-2-1.3-4-2.2-4.5-1.9-.4.3-.8.1-.8-.4 0-.9-2-1.8-5.8-2.7-.8-.2-2.1-.7-3-1.1-2-.9-1.5-.7-7.2-2.3-2.5-.7-5.6-1.5-7-1.7-3.4-.6-24.7-1.4-25.1-.9z"/></svg>